<svg width="48" height="48" viewBox="0 0 48 48" fill="none" xmlns="http://www.w3.org/2000/svg">
<rect width="48" height="48" rx="24" fill="#3B82F6"/>
<path d="M14.25 16.125C14.25 15.089 15.09 14.25 16.125 14.25H21.375C22.411 14.25 23.25 15.09 23.25 16.125V29.25C23.25 30.4435 22.7759 31.5881 21.932 32.432C21.0881 33.2759 19.9435 33.75 18.75 33.75C17.5565 33.75 16.4119 33.2759 15.568 32.432C14.7241 31.5881 14.25 30.4435 14.25 29.25V16.125ZM18.75 30.375C19.0484 30.375 19.3345 30.2565 19.5455 30.0455C19.7565 29.8345 19.875 29.5484 19.875 29.25C19.875 28.9516 19.7565 28.6655 19.5455 28.4545C19.3345 28.2435 19.0484 28.125 18.75 28.125C18.4516 28.125 18.1655 28.2435 17.9545 28.4545C17.7435 28.6655 17.625 28.9516 17.625 29.25C17.625 29.5484 17.7435 29.8345 17.9545 30.0455C18.1655 30.2565 18.4516 30.375 18.75 30.375Z" fill="white"/>
<path d="M22.719 33.75H31.875C32.911 33.75 33.75 32.91 33.75 31.875V26.625C33.75 25.589 32.91 24.75 31.875 24.75H31.735L22.993 33.493C22.903 33.582 22.813 33.668 22.719 33.75ZM24.738 29.625L31.212 23.151C31.5634 22.7994 31.7608 22.3226 31.7608 21.8255C31.7608 21.3284 31.5634 20.8516 31.212 20.5L27.5 16.787C27.1484 16.4356 26.6716 16.2381 26.1745 16.2381C25.6774 16.2381 25.2006 16.4356 24.849 16.787L24.749 16.886V29.25C24.749 29.376 24.746 29.501 24.739 29.625H24.738Z" fill="white"/>
</svg>
