<svg width="16" height="16" viewBox="0 0 16 16" fill="none" xmlns="http://www.w3.org/2000/svg">
<path d="M7.6975 0.0125864C6.74648 0.0482738 5.86019 0.235633 4.98954 0.585816C4.63681 0.728566 4.01619 1.04083 3.91126 1.13228C3.58086 1.41109 3.68132 1.94194 4.09209 2.09584C4.28854 2.16945 4.38231 2.14714 4.86229 1.90402C5.78875 1.43562 6.59021 1.21704 7.59704 1.15681C8.78694 1.08544 9.94782 1.31964 11.0239 1.84826C13.1447 2.89212 14.5712 4.92184 14.8324 7.26829C14.8704 7.60063 14.8704 8.43705 14.8324 8.75155C14.6337 10.4289 13.8613 11.9433 12.6357 13.063C11.5663 14.04 10.2715 14.6333 8.8048 14.8206C8.42305 14.8697 7.57472 14.8697 7.19297 14.8206C5.40924 14.5931 3.86661 13.7567 2.72583 12.3984C1.12069 10.4891 0.685364 7.81921 1.6029 5.49507C1.69667 5.25864 1.77034 5.10251 2.04716 4.56273C2.28603 4.09211 1.8641 3.59025 1.36626 3.75531C1.20329 3.80884 1.09167 3.93151 0.937631 4.2237C0.430864 5.17388 0.131715 6.15975 0.0267895 7.21253C-0.00892982 7.56717 -0.00892982 8.46159 0.0267895 8.79616C0.341566 11.8006 2.26371 14.3433 5.05204 15.4496C5.69053 15.7039 6.27766 15.8511 7.07242 15.9582C7.48319 16.0139 8.51458 16.0139 8.92535 15.9582C9.96568 15.8177 10.7046 15.5968 11.582 15.1641C13.6582 14.1404 15.2276 12.1753 15.7768 9.91808C15.9397 9.24671 16 8.73593 16 8.00434C16 7.44003 15.9732 7.12331 15.8884 6.62814C15.3347 3.38728 12.8143 0.806632 9.5683 0.155336C9.14637 0.0705785 8.26231 -0.0119487 7.94307 0.00143408L7.88928 0.00379102C7.83429 0.0061696 7.76012 0.009378 7.6975 0.0125864Z" fill="#3B82F6"/>
<path d="M7.75997 4.31961C7.60147 4.37091 7.46529 4.47352 7.37822 4.60288C7.28446 4.74563 7.25321 4.85716 7.25321 5.05121C7.25544 5.32109 7.40278 5.56198 7.64612 5.69804C7.75551 5.75826 7.7823 5.76272 7.99885 5.76272C8.21539 5.76272 8.24218 5.75826 8.35157 5.69804C8.59491 5.56198 8.74225 5.32109 8.74449 5.05121C8.74449 4.85716 8.71323 4.74563 8.61947 4.60511C8.44087 4.33523 8.08145 4.21478 7.75997 4.31961Z" fill="#3B82F6"/>
<path d="M7.71539 6.76197C7.75111 6.74413 7.82032 6.72182 7.87166 6.71067C7.92301 6.70175 8.01007 6.69729 8.06589 6.70398C8.2802 6.72851 8.41415 6.82442 8.50345 7.01178L8.55703 7.12331V9.49429C8.55703 11.7316 8.56365 11.9235 8.47286 12.039C8.45821 12.0577 8.44102 12.0743 8.42085 12.0972C8.2043 12.3426 7.81139 12.3471 7.58144 12.1062C7.56049 12.084 7.54264 12.0681 7.52745 12.0499C7.4342 11.9386 7.4408 11.7437 7.4408 9.50544C7.4408 8.20731 7.4475 7.12108 7.45643 7.08985C7.48545 6.97387 7.61046 6.81773 7.71539 6.76197Z" fill="#3B82F6"/>
</svg>
