<svg width="40" height="40" viewBox="0 0 40 40" fill="none" xmlns="http://www.w3.org/2000/svg">
<circle opacity="0.12" cx="20" cy="20" r="20" fill="#F9F9F9"/>
<path d="M14.6667 29.3333C16.1333 29.3333 17.3333 28.1333 17.3333 26.6666V13.3333C17.3333 11.8666 16.1333 10.6666 14.6667 10.6666C13.2 10.6666 12 11.8666 12 13.3333V26.6666C12 28.1333 13.2 29.3333 14.6667 29.3333ZM22.6667 13.3333V26.6666C22.6667 28.1333 23.8667 29.3333 25.3333 29.3333C26.8 29.3333 28 28.1333 28 26.6666V13.3333C28 11.8666 26.8 10.6666 25.3333 10.6666C23.8667 10.6666 22.6667 11.8666 22.6667 13.3333Z" fill="#F9F9F9"/>
</svg>
