<svg width="48" height="48" viewBox="0 0 48 48" fill="none" xmlns="http://www.w3.org/2000/svg">
<rect width="48" height="48" rx="24" fill="#3B82F6"/>
<g clip-path="url(#clip0_12_325)">
<path fill-rule="evenodd" clip-rule="evenodd" d="M20.9216 12.7362C21.4691 12.408 22.1803 12.1641 22.9991 12.0328C23.3079 11.9812 24.4683 12.0047 24.8379 12.0703C26.0123 12.2767 27.0744 12.8347 27.926 13.7022C28.9928 14.7854 29.5122 15.9905 29.5824 17.5238C29.6572 19.2494 29.1191 20.6468 27.8933 21.8754C27.3458 22.4193 26.8171 22.8085 26.2556 23.0617C24.5759 23.8214 22.5312 23.7463 20.9965 22.8648C19.4384 21.9692 18.4044 20.5061 18.1049 18.7805C18.002 18.1897 18.0347 17.0174 18.1704 16.4313C18.3014 15.8779 18.5354 15.2777 18.7974 14.8463C19.3027 14.0116 20.0748 13.2426 20.9216 12.7362ZM26.8966 14.7525C26.3399 14.1851 25.7035 13.7959 25.0017 13.5896C24.5525 13.4583 23.3641 13.4208 22.9102 13.524C22.4095 13.6365 22.054 13.7725 21.689 13.9882C20.7017 14.5743 19.9671 15.4887 19.649 16.525C19.5273 16.9142 19.518 17.008 19.518 17.7677C19.5133 18.4851 19.5273 18.6352 19.6209 18.954C19.8408 19.7184 20.2338 20.342 20.8795 20.9563C21.7077 21.7441 22.6622 22.1239 23.8226 22.1286C24.9923 22.1286 26.0872 21.6644 26.9107 20.8062C27.4628 20.2342 27.7763 19.709 27.9915 19.0009C28.1038 18.6258 28.1132 18.5179 28.1179 17.7911C28.1179 17.0549 28.1085 16.9611 27.9915 16.5813C27.7623 15.8404 27.4534 15.3199 26.8966 14.7525Z" fill="white"/>
<path fill-rule="evenodd" clip-rule="evenodd" d="M16.0134 24.8811C16.7012 24.1731 17.5201 23.7698 18.6009 23.6104C18.6664 23.601 18.891 23.5916 19.1015 23.5869C19.4478 23.5822 19.5086 23.5963 19.78 23.737C19.9438 23.8214 20.3227 24.0558 20.6316 24.2575C21.4738 24.8061 22.0306 25.064 22.8587 25.2797C23.4389 25.4298 24.487 25.4298 25.0719 25.275C25.8486 25.0734 26.4334 24.8061 27.2756 24.2668C28.3658 23.5635 28.3752 23.5635 29.0115 23.5963C31.9733 23.7604 33.7139 26.3488 33.9478 30.9442C33.9993 31.9711 33.9572 32.637 33.8074 33.195C33.5595 34.0859 32.9839 34.8737 32.2026 35.3708C31.8657 35.5865 31.599 35.7037 31.0937 35.8631L30.6959 35.9851L24.1501 35.9991C17.9377 36.0113 17.314 36.02 16.7519 35.8379C16.6667 35.8102 16.583 35.7782 16.4813 35.7412C15.9245 35.5443 15.5268 35.2817 15.0683 34.8175C14.7455 34.4939 14.5957 34.3016 14.4507 34.0156C14.0576 33.2372 13.9688 32.7964 13.9688 31.5585C13.9688 28.6278 14.7033 26.2316 16.0134 24.8811ZM22.0259 26.5552C21.3006 26.3348 20.6783 26.03 19.8408 25.4907C19.0735 24.9937 19.0594 24.989 18.5307 25.1062C17.9037 25.2422 17.4124 25.5188 17.0194 25.9502C15.9994 27.0663 15.4239 29.1014 15.4192 31.5726C15.4192 32.4822 15.466 32.773 15.6906 33.2419C15.8684 33.6076 16.3503 34.0813 16.734 34.2641C16.8375 34.3135 16.9159 34.3552 16.9972 34.3904C17.4633 34.5919 18.022 34.5783 23.9349 34.5783C29.7976 34.5783 30.2047 34.5736 30.5415 34.4939C31.6645 34.2313 32.371 33.4435 32.4973 32.3088C32.5582 31.7601 32.4739 30.2361 32.3336 29.4202C31.8657 26.6677 30.8176 25.2516 29.0911 25.0546L28.8057 25.0265L28.1132 25.4673C27.285 26.0018 26.8265 26.241 26.1854 26.4614C24.7771 26.9537 23.4389 26.9819 22.0259 26.5552Z" fill="white"/>
</g>
<defs>
<clipPath id="clip0_12_325">
<rect width="24" height="24" fill="white" transform="translate(12 12)"/>
</clipPath>
</defs>
</svg>
