<svg width="60" height="68" viewBox="0 0 60 68" fill="none" xmlns="http://www.w3.org/2000/svg">
<path d="M7.55949 0.120026C7.2479 0.18644 6.52988 0.412262 5.97444 0.638077C3.11592 1.76717 0.934776 4.22459 0.243855 7.12038C0.0135475 8.10335 0 9.44497 0 34.0591V59.9617L0.311592 61.0111C1.21927 64.1062 3.37332 66.4175 6.32667 67.4934C7.7898 68.0248 10.1742 68.1576 11.5831 67.7989C12.9514 67.4536 14.5635 66.6566 15.0783 66.0854C15.6473 65.4478 15.7828 65.0891 15.7828 64.239C15.7828 63.4021 15.4035 62.6848 14.6584 62.1004C14.2384 61.7683 13.9945 61.6886 13.2901 61.6487C12.5314 61.5956 12.3011 61.6487 11.3392 62.0738C10.4993 62.4457 10.0929 62.552 9.46968 62.552C7.97946 62.552 6.62471 61.6354 5.9067 60.161L5.55446 59.4304V33.9263V8.42215L5.93379 7.66499C6.89566 5.75219 9.23938 4.87548 11.1089 5.75219C12.3011 6.31009 52.6861 30.7914 53.228 31.2829C54.7995 32.7308 54.8266 35.3077 53.2551 36.7955C52.9842 37.0479 46.0479 41.2853 37.8246 46.2134C29.3845 51.2744 22.6785 55.379 22.4075 55.6579C21.4863 56.5745 21.3779 58.0356 22.1501 59.085C22.692 59.8156 23.4236 60.161 24.4125 60.161C25.0628 60.161 25.3473 60.0813 26.0924 59.6562C26.5937 59.3906 33.5706 55.2196 41.6043 50.3977C55.1382 42.2682 56.2762 41.5642 57.2381 40.6344C59.2973 38.6286 60.2727 35.8524 59.934 32.9566C59.636 30.3663 58.2135 27.962 56.1001 26.5009C54.9486 25.7038 14.6719 1.38194 13.7236 0.903748C12.423 0.252861 11.1631 -0.0128098 9.55097 0.000473022C8.76522 0.0137558 7.87108 0.0668869 7.55949 0.120026Z" fill="white"/>
</svg>
