<svg width="32" height="32" viewBox="0 0 32 32" fill="none" xmlns="http://www.w3.org/2000/svg">
<g clip-path="url(#clip0_201_5893)">
<path d="M25.5195 17.2533C25.5728 16.8533 25.5995 16.44 25.5995 16C25.5995 15.5733 25.5728 15.1466 25.5062 14.7466L28.2128 12.64C28.4528 12.4533 28.5195 12.0933 28.3728 11.8266L25.8128 7.39995C25.6528 7.10662 25.3195 7.01328 25.0262 7.10662L21.8395 8.38662C21.1728 7.87995 20.4662 7.45328 19.6795 7.13328L19.1995 3.74662C19.1462 3.42662 18.8795 3.19995 18.5595 3.19995H13.4395C13.1195 3.19995 12.8662 3.42662 12.8128 3.74662L12.3328 7.13328C11.5462 7.45328 10.8262 7.89328 10.1728 8.38662L6.98616 7.10662C6.69283 6.99995 6.3595 7.10662 6.1995 7.39995L3.65283 11.8266C3.49283 12.1066 3.54616 12.4533 3.81283 12.64L6.5195 14.7466C6.45283 15.1466 6.3995 15.5866 6.3995 16C6.3995 16.4133 6.42616 16.8533 6.49283 17.2533L3.78616 19.36C3.54616 19.5466 3.4795 19.9066 3.62616 20.1733L6.18616 24.6C6.34616 24.8933 6.6795 24.9866 6.97283 24.8933L10.1595 23.6133C10.8262 24.12 11.5328 24.5466 12.3195 24.8666L12.7995 28.2533C12.8662 28.5733 13.1195 28.8 13.4395 28.8H18.5595C18.8795 28.8 19.1462 28.5733 19.1862 28.2533L19.6662 24.8666C20.4528 24.5466 21.1728 24.12 21.8262 23.6133L25.0128 24.8933C25.3062 25 25.6395 24.8933 25.7995 24.6L28.3595 20.1733C28.5195 19.88 28.4528 19.5466 28.1995 19.36L25.5195 17.2533ZM15.9995 20.8C13.3595 20.8 11.1995 18.64 11.1995 16C11.1995 13.36 13.3595 11.2 15.9995 11.2C18.6395 11.2 20.7995 13.36 20.7995 16C20.7995 18.64 18.6395 20.8 15.9995 20.8Z" fill="#F9F9F9"/>
</g>
<defs>
<clipPath id="clip0_201_5893">
<rect width="32" height="32" fill="white"/>
</clipPath>
</defs>
</svg>
